<svg width="180" height="180" viewBox="0 0 180 180" fill="none" xmlns="http://www.w3.org/2000/svg">
  <rect width="180" height="180" rx="20" fill="#1f2937"/>
  <rect x="15" y="15" width="150" height="150" rx="15" fill="#374151"/>
  
  <!-- Tesoura estilizada -->
  <g transform="translate(90, 90)">
    <!-- Cabo da tesoura -->
    <circle cx="-18" cy="-14" r="7" fill="#fbbf24" stroke="#f59e0b" stroke-width="2"/>
    <circle cx="-18" cy="14" r="7" fill="#fbbf24" stroke="#f59e0b" stroke-width="2"/>
    
    <!-- Lâminas -->
    <path d="M-11 -14 L18 -5 L23 -7 L18 -3 L-11 -14Z" fill="#e5e7eb" stroke="#d1d5db" stroke-width="1"/>
    <path d="M-11 14 L18 5 L23 7 L18 3 L-11 14Z" fill="#e5e7eb" stroke="#d1d5db" stroke-width="1"/>
    
    <!-- Pente -->
    <rect x="28" y="-11" width="22" height="22" rx="2" fill="#6b7280" stroke="#4b5563" stroke-width="1"/>
    <rect x="30" y="-9" width="2" height="18" fill="#374151"/>
    <rect x="34" y="-9" width="2" height="18" fill="#374151"/>
    <rect x="38" y="-9" width="2" height="18" fill="#374151"/>
    <rect x="42" y="-9" width="2" height="18" fill="#374151"/>
    <rect x="46" y="-9" width="2" height="18" fill="#374151"/>
  </g>
  
  <!-- Texto BarberTime+ -->
  <text x="90" y="130" text-anchor="middle" fill="#fbbf24" font-family="Arial, sans-serif" font-size="12" font-weight="bold">BarberTime+</text>
</svg>