<svg width="192" height="192" viewBox="0 0 192 192" fill="none" xmlns="http://www.w3.org/2000/svg">
  <rect width="192" height="192" rx="24" fill="#1f2937"/>
  <rect x="16" y="16" width="160" height="160" rx="16" fill="#374151"/>
  
  <!-- Tesoura estilizada -->
  <g transform="translate(96, 96)">
    <!-- Cabo da tesoura -->
    <circle cx="-20" cy="-15" r="8" fill="#fbbf24" stroke="#f59e0b" stroke-width="2"/>
    <circle cx="-20" cy="15" r="8" fill="#fbbf24" stroke="#f59e0b" stroke-width="2"/>
    
    <!-- Lâminas -->
    <path d="M-12 -15 L20 -5 L25 -8 L20 -2 L-12 -15Z" fill="#e5e7eb" stroke="#d1d5db" stroke-width="1"/>
    <path d="M-12 15 L20 5 L25 8 L20 2 L-12 15Z" fill="#e5e7eb" stroke="#d1d5db" stroke-width="1"/>
    
    <!-- Pente -->
    <rect x="30" y="-12" width="25" height="24" rx="2" fill="#6b7280" stroke="#4b5563" stroke-width="1"/>
    <rect x="32" y="-10" width="2" height="20" fill="#374151"/>
    <rect x="36" y="-10" width="2" height="20" fill="#374151"/>
    <rect x="40" y="-10" width="2" height="20" fill="#374151"/>
    <rect x="44" y="-10" width="2" height="20" fill="#374151"/>
    <rect x="48" y="-10" width="2" height="20" fill="#374151"/>
    <rect x="52" y="-10" width="2" height="20" fill="#374151"/>
  </g>
  
  <!-- Texto BarberTime+ -->
  <text x="96" y="140" text-anchor="middle" fill="#fbbf24" font-family="Arial, sans-serif" font-size="14" font-weight="bold">BarberTime+</text>
</svg>